<?xml version="1.0" standalone="no"?>
<!DOCTYPE svg PUBLIC "-//W3C//DTD SVG 20010904//EN"
 "http://www.w3.org/TR/2001/REC-SVG-20010904/DTD/svg10.dtd">
<svg version="1.0" xmlns="http://www.w3.org/2000/svg"
 width="310.000000pt" height="310.000000pt" viewBox="0 0 310.000000 310.000000"
 preserveAspectRatio="xMidYMid meet">
<metadata>
Created by potrace 1.11, written by Peter Selinger 2001-2013
</metadata>
<g transform="translate(0.000000,310.000000) scale(0.100000,-0.100000)"
fill="#000000" stroke="none">
<path d="M783 2475 c-65 -28 -87 -145 -38 -203 14 -17 25 -32 25 -35 0 -2 -33
-10 -72 -16 -301 -49 -543 -267 -630 -568 -19 -65 -23 -101 -22 -218 1 -125 4
-149 29 -225 51 -157 117 -263 232 -370 304 -284 742 -274 1099 26 l51 43 29
-20 c38 -25 75 -24 108 2 l26 20 53 -44 c358 -301 795 -312 1100 -27 115 107
181 213 232 370 25 76 28 100 29 225 1 117 -3 153 -22 218 -87 301 -329 519
-629 568 l-73 12 25 29 c65 78 32 201 -61 224 -69 17 -270 -54 -555 -196
l-177 -87 -163 82 c-242 122 -463 206 -539 205 -14 -1 -39 -7 -57 -15z m134
-396 c298 -40 501 -232 594 -559 11 -36 19 -75 19 -87 0 -13 5 -23 10 -23 6 0
10 10 10 23 0 68 76 262 138 355 119 175 277 268 501 294 191 22 311 -20 451
-161 280 -281 288 -664 20 -941 -75 -78 -153 -130 -248 -168 -59 -23 -81 -26
-182 -25 -174 0 -327 49 -489 158 l-68 45 13 57 c17 72 6 121 -39 169 -57 63
-150 64 -213 3 -47 -46 -60 -97 -42 -171 l15 -59 -68 -45 c-162 -108 -315
-157 -489 -157 -101 -1 -123 2 -182 25 -180 71 -329 220 -404 406 -92 227 -23
504 176 702 147 148 267 188 477 159z"/>
<path d="M795 1721 c-88 -23 -167 -88 -206 -169 -34 -70 -33 -189 3 -257 57
-109 154 -169 273 -169 266 -1 402 326 212 512 -23 23 -64 51 -91 63 -53 23
-143 33 -191 20z m232 -131 c42 -25 62 -84 42 -125 -31 -63 -107 -87 -162 -51
-57 38 -60 125 -6 170 37 31 82 34 126 6z"/>
<path d="M2123 1712 c-138 -49 -210 -160 -201 -309 9 -162 130 -276 294 -277
215 -1 359 207 283 408 -54 147 -230 230 -376 178z m63 -136 c25 -25 34 -43
34 -67 0 -80 -75 -134 -146 -104 -110 46 -76 203 45 205 25 0 42 -9 67 -34z"/>
</g>
</svg>
